<svg width="28" height="24" fill="none" xmlns="http://www.w3.org/2000/svg"><path d="M26.72 8.383a1.804 1.804 0 00-1.418-.68h-5.029l-2.726-6.244a.765.765 0 10-1.402.612l2.46 5.631h-9.1l2.458-5.63a.765.765 0 00-1.402-.613L7.835 7.702H2.807c-.557 0-1.075.248-1.42.68a1.764 1.764 0 00-.342 1.499L3.73 21.609c.188.82.912 1.391 1.762 1.391h17.124c.85 0 1.575-.572 1.762-1.39l2.685-11.73a1.761 1.761 0 00-.342-1.497zM22.617 21.47H5.492a.274.274 0 01-.27-.202L2.535 9.539a.234.234 0 01.048-.203.278.278 0 01.223-.104h4.36l-.2.459a.765.765 0 001.401.612l.468-1.07h10.436l.468 1.07a.765.765 0 101.402-.612l-.2-.459h4.36c.121 0 .191.065.222.104a.234.234 0 01.048.203l-2.685 11.729a.274.274 0 01-.27.202z" fill="#fff" stroke="#fff" stroke-width=".4"/><path d="M9.465 12.546a.765.765 0 00-.765.765v5.61a.765.765 0 001.53 0v-5.61a.765.765 0 00-.765-.765zm4.589 0a.765.765 0 00-.765.765v5.61a.765.765 0 001.53 0v-5.61a.765.765 0 00-.765-.765zm4.589 0a.765.765 0 00-.765.765v5.61a.765.765 0 001.53 0v-5.61a.765.765 0 00-.765-.765z" fill="#fff" stroke="#fff" stroke-width=".4"/></svg>