<svg width="18" height="20" fill="none" xmlns="http://www.w3.org/2000/svg"><path d="M8.906 9.957c2.404 0 4.527-2.133 4.735-4.754.104-1.317-.335-2.545-1.235-3.457-.89-.902-2.134-1.398-3.5-1.398-1.377 0-2.622.493-3.506 1.39-.894.905-1.33 2.135-1.23 3.464.205 2.622 2.328 4.755 4.736 4.755zm8.88 7.846c-.362-2.05-1.49-3.772-3.262-4.98-1.575-1.074-3.57-1.665-5.618-1.665-2.048 0-4.043.59-5.617 1.664-1.773 1.208-2.901 2.93-3.262 4.98-.083.47.03.935.307 1.275.127.155.285.28.464.364a1.3 1.3 0 00.572.124h15.072a1.3 1.3 0 00.573-.124c.179-.084.337-.208.464-.363.277-.34.39-.805.307-1.275z" fill="#000" fill-opacity=".2"/></svg>